<?xml version="1.0" standalone="no"?>
<!DOCTYPE svg PUBLIC "-//W3C//DTD SVG 20010904//EN"
 "http://www.w3.org/TR/2001/REC-SVG-20010904/DTD/svg10.dtd">
<svg version="1.0" xmlns="http://www.w3.org/2000/svg"
 width="1024.000000pt" height="1024.000000pt" viewBox="0 0 1024.000000 1024.000000"
 preserveAspectRatio="xMidYMid meet">

<g transform="translate(0.000000,1024.000000) scale(0.100000,-0.100000)"
fill="#000000" stroke="none">
<path d="M5795 8464 c-11 -2 -45 -9 -75 -15 -156 -30 -325 -116 -452 -228 -65
-58 -153 -192 -187 -287 -45 -124 -68 -338 -38 -362 16 -13 186 -32 292 -32
252 0 540 68 771 182 99 49 184 97 219 123 68 50 77 43 19 -13 -131 -126 -349
-249 -573 -322 -191 -62 -548 -129 -776 -145 -718 -49 -1424 -414 -1898 -979
-333 -397 -546 -877 -624 -1406 -28 -191 -25 -584 5 -778 96 -607 376 -1153
808 -1572 222 -216 427 -362 693 -495 662 -331 1433 -382 2136 -142 571 196
1059 576 1416 1102 87 129 205 360 259 510 18 50 36 99 41 110 14 33 56 175
73 245 134 572 89 1159 -128 1694 -107 260 -284 553 -443 731 -30 34 -10 4 44
-65 242 -314 418 -729 487 -1150 99 -608 -27 -1253 -348 -1780 -86 -140 -105
-169 -134 -201 -12 -13 -58 -67 -101 -119 -158 -192 -422 -419 -638 -548 -133
-80 -354 -185 -486 -231 -197 -68 -441 -123 -609 -137 l-88 -7 0 530 0 529 35
13 c64 23 70 43 72 239 1 96 3 175 5 177 2 1 80 41 175 89 192 98 254 145 289
221 l24 50 0 518 0 517 23 0 c39 0 106 56 129 107 26 59 20 119 -16 174 -40
60 -89 79 -208 79 l-98 0 0 365 c0 347 -1 368 -20 405 -40 78 -147 102 -220
50 -59 -42 -60 -53 -60 -455 l0 -365 -310 0 -310 0 0 366 c0 405 -1 412 -64
457 -43 31 -129 31 -172 0 -63 -45 -64 -52 -64 -457 l0 -366 -97 0 c-75 0
-108 -5 -140 -19 -84 -39 -126 -153 -87 -236 22 -46 95 -105 130 -105 l24 0 0
-512 c0 -339 4 -526 11 -552 7 -26 30 -59 67 -96 47 -46 89 -72 234 -145 l178
-90 0 -160 c1 -194 9 -222 67 -250 l42 -20 1 -527 0 -528 -28 0 c-93 0 -345
46 -507 92 -962 273 -1681 1073 -1859 2068 -55 306 -47 686 20 989 182 825
713 1487 1474 1836 255 116 577 204 820 221 l85 6 19 -32 c28 -49 126 -141
191 -180 278 -166 753 -110 1070 127 217 161 408 443 520 763 34 97 97 321 92
326 -1 1 -33 -6 -72 -16 -128 -34 -269 -23 -507 39 -210 55 -316 73 -463 76
-77 2 -149 2 -160 -1z m-321 -3581 c-27 -49 -74 -135 -105 -193 l-57 -105 168
-5 169 -5 -102 -158 c-319 -494 -420 -648 -429 -653 -7 -5 -8 2 -3 22 4 16 13
54 20 84 7 30 31 136 54 235 23 99 44 192 48 208 l6 27 -161 0 c-89 0 -163 3
-165 8 -5 7 3 24 140 312 41 85 90 190 110 233 l37 77 159 0 159 0 -48 -87z"/>
</g>
</svg>
